<?xml version="1.0" encoding="utf-8"?>
<svg xmlns="http://www.w3.org/2000/svg" viewBox="0 0 760 520" width="760" height="520">
<rect width="760" height="520" fill="white"/>

<!-- ── DSP1: loops mark ── -->
<g transform="translate(40,40) scale(0.2)">
  <path fill="black" d="M618.8,600L618.8,600c18.6,11.3,40,17.3,61.9,17.3c65.7,0,119.1-53.4,119.1-119.1
c0-65.7-53.4-119.1-119.1-119.1c-36.4,0-70.9,17-94.6,46.7l-54.3,67.8l-35.6-22.2l192-239.7l-17.4-36.2h-52.3
c-72.9,0-132.2-59.3-132.2-132.1h-44.6c0,72.9-59.3,132.2-132.2,132.2V240c72.9,0,132.2,59.3,132.2,132.2h44.6
c0-35.3,13.8-68.5,38.7-93.5l-31.5-31.5c-11.8,11.8-21.7,24.9-29.5,39c-16-28.7-39.8-52.5-68.5-68.5
c28.7-16,52.6-39.9,68.6-68.6c30.2,54.2,88.2,90.9,154.5,90.9h5.9L458.1,447.6l-76.6-47.6l-0.2-0.1
c-18.6-11.4-40.1-17.4-62-17.4c-65.7,0-119.1,53.4-119.1,119.1c0,65.7,53.4,119.1,119.1,119.1
c36.1,0,70.5-17,94.5-46.6l0,0l54.4-67.9l35.6,22.2L311.7,768.3l17.4,36.2h52.3c72.9,0,132.3,59.3,132.3,132.2h44.6
c0-72.9,59.3-132.3,132.3-132.3v-44.6c-72.9,0-132.3-59.3-132.3-132.3h-44.6c0,35.3-13.8,68.5-38.7,93.5l31.5,31.5
c11.8-11.8,21.7-24.9,29.6-39c16.1,28.7,39.9,52.5,68.6,68.6c-28.8,16.1-52.6,39.9-68.7,68.7
c-30.3-54.2-88.2-90.9-154.6-90.9h-5.9l166.4-207.7L618.8,600z
M621,453.5c15.4-19.3,36.6-29.9,59.7-29.9c41.1,0,74.6,33.4,74.6,74.6s-33.4,74.6-74.6,74.6
c-13.7,0-27.1-3.8-38.8-10.8l0,0L570,517.2L621,453.5z
M378.9,546.4L378.9,546.4c-15.4,19-37.2,29.8-59.6,29.8c-41.1,0-74.6-33.4-74.6-74.6
s33.4-74.6,74.6-74.6c13.7,0,27.1,3.7,38.7,10.8l72,44.8L378.9,546.4z"/>
</g>

<!-- ── DSP2: loops-in-oval mark ── -->
<g transform="translate(280,40) scale(0.2)">
  <path fill="black" d="M645.3,403.6c-29.5,0-57.4,13.8-76.6,37.8v0l0,0c-0.3,0.4-18.3,22.8-43.9,54.8L496,478.2
l155.4-194l-14.1-29.3h-42.4c-59,0-107-48-107-107h-36.1c0,59-48,107-107,107v36.1c59,0,107,48,107,107h36.1
c0-28.6,11.1-55.5,31.3-75.7l-25.5-25.5c-9.5,9.5-17.5,20.1-23.9,31.6c-13-23.2-32.2-42.5-55.5-55.4
c23.3-13,42.6-32.3,55.5-55.5c24.5,43.8,71.4,73.6,125,73.6h4.8l-134.6,168l-62-38.6l-0.1-0.1
c-15.1-9.2-32.4-14.1-50.2-14.1c-53.2,0-96.4,43.3-96.4,96.4s43.3,96.4,96.4,96.4c29.2,0,57.1-13.7,76.5-37.7
l0,0l44-54.9l28.9,17.9c-64.9,81-154.1,192.3-155.5,194.1l14.1,29.3h42.4c59,0,107.1,48,107.1,107h36.1
c0-59,48-107.1,107.1-107.1v-36.1c-59,0-107.1-48-107.1-107.1h-36.1c0,28.6-11.1,55.5-31.4,75.7l25.5,25.5
c9.5-9.5,17.5-20.2,23.9-31.6c13,23.2,32.3,42.5,55.5,55.5c-23.3,13-42.6,32.3-55.6,55.6
c-24.5-43.9-71.4-73.6-125.1-73.6h-4.8L533,543.8l62.2,38.7l0,0c15.1,9.2,32.4,14,50.1,14
c53.2,0,96.4-43.3,96.4-96.4C741.8,446.8,698.5,403.6,645.3,403.6z
M401.1,539L401.1,539c-12.5,15.3-30.1,24.1-48.2,24.1c-33.3,0-60.3-27.1-60.3-60.3s27.1-60.3,60.3-60.3
c11.1,0,21.9,3,31.3,8.7l58.3,36.2L401.1,539z
M645.3,560.3c-11.1,0-21.9-3-31.4-8.8l0,0l-58.2-36.2l38.7-48.4c0.8-1,1.6-2,2.4-3.2l0.1,0.1
c12.5-15.6,29.7-24.2,48.4-24.2c33.3,0,60.3,27.1,60.3,60.3C705.7,533.3,678.6,560.3,645.3,560.3z
M738.2,194C681.9,108.5,599.5,63.2,500,63.2S318.1,108.5,261.8,194c-51.1,77.6-78.1,183.4-78.1,306
c0,122.6,27,228.4,78.1,306c56.3,85.5,138.7,130.8,238.2,130.8S681.9,891.5,738.2,806
c51.1-77.6,78.1-183.4,78.1-306C816.3,377.4,789.3,271.6,738.2,194z
M708,786.1c-24,36.5-53.3,64.7-87.1,84c-35.6,20.3-76.3,30.5-120.9,30.5s-85.3-10.3-120.9-30.5
c-33.8-19.2-63.1-47.5-87.1-84c-46.5-70.7-72.2-172.3-72.2-286.1c0-113.9,25.6-215.5,72.2-286.1
c24-36.5,53.3-64.7,87.1-84c35.6-20.3,76.3-30.5,120.9-30.5s85.3,10.3,120.9,30.5
c33.8,19.2,63.1,47.5,87.1,84c46.5,70.7,72.2,172.3,72.2,286.1C780.2,613.9,754.6,715.5,708,786.1z"/>
</g>

<!-- ── FX Starlight mark (extracted from PDF page 2) ── -->
<!-- mark center ~(126,126) in 252×252 space; scale 2.3, translate to center in 200×200 cell -->
<g transform="translate(520,40)">
  <g transform="translate(-190,-190) scale(2.3)">
    <path fill="black" fill-rule="nonzero" d="M 155.953125 156.625 C 155.179688 157.324219 154.675781 157.238281 153.773438 156.339844
L 119.839844 122.402344 L 132.875 109.367188 C 133.320312 108.921875 133.679688 108.636719 134.066406 108.613281
C 134.414062 108.597656 134.722656 108.777344 135.054688 109.078125 L 135.160156 108.976562
L 131.273438 105.089844 L 131.167969 105.195312 C 131.867188 105.96875 131.785156 106.472656 130.882812 107.375
L 119.234375 119.019531 L 119.234375 95.164062 L 126.742188 95.164062
C 127.796875 95.164062 128.257812 95.53125 128.324219 96.449219 L 128.472656 96.449219
L 128.472656 91.382812 L 128.324219 91.382812 C 128.257812 92.304688 127.796875 92.667969 126.742188 92.667969
L 115.078125 92.667969 L 115.078125 92.816406 C 116.121094 92.867188 116.417969 93.28125 116.417969 94.558594
L 116.417969 118.980469 L 100.21875 102.78125 C 99.753906 102.316406 99.464844 101.945312 99.464844 101.535156
C 99.464844 101.207031 99.644531 100.917969 99.933594 100.605469 L 99.828125 100.5
L 95.941406 104.386719 L 96.046875 104.488281 C 96.820312 103.789062 97.320312 103.875 98.226562 104.777344
L 115.851562 122.402344 L 103.058594 135.199219 C 102.15625 136.101562 101.652344 136.183594 100.878906 135.484375
L 100.773438 135.589844 L 104.660156 139.476562 L 104.765625 139.371094
C 104.0625 138.597656 104.148438 138.09375 105.050781 137.191406 L 116.417969 125.824219
L 116.417969 147.582031 C 116.417969 148.789062 116.207031 149.269531 115.078125 149.324219
L 115.078125 149.476562 L 120.574219 149.472656 L 120.574219 149.324219
C 119.53125 149.273438 119.234375 148.859375 119.234375 147.582031 L 119.234375 125.785156
L 151.78125 158.332031 C 152.683594 159.234375 152.765625 159.734375 152.066406 160.511719
L 152.171875 160.617188 L 156.058594 156.730469 Z"/>
  </g>
</g>

<!-- ── H+W monogram (traced from engraved silver piece) ── -->
<g transform="translate(40,280)" fill="none" stroke="black" stroke-width="9" stroke-linecap="round" stroke-linejoin="round">
  <!-- W letterform -->
  <polyline points="38,22 58,90 100,52 142,90 162,22"/>
  <!-- + symbol -->
  <line x1="84" y1="110" x2="116" y2="110"/>
  <line x1="100" y1="94" x2="100" y2="126"/>
  <!-- H letterform -->
  <line x1="44" y1="132" x2="44" y2="186"/>
  <line x1="156" y1="132" x2="156" y2="186"/>
  <line x1="44" y1="159" x2="156" y2="159"/>
</g>

<!-- ── Shoreleave: tunnel arch + ladder ── -->
<g transform="translate(280,280)">
  <!-- dark arch frame — outer rect with arch-shaped opening cut out -->
  <path fill="black" fill-rule="evenodd" d="M 0,0 H 200 V 200 H 0 Z
    M 35,188 L 35,100 A 65,65 0 0 1 165,100 L 165,188 Z"/>
  <!-- ladder visible against white opening -->
  <g stroke="black" stroke-width="5" stroke-linecap="round" fill="none">
    <line x1="93" y1="176" x2="93" y2="58"/>
    <line x1="107" y1="176" x2="107" y2="58"/>
    <line x1="93" y1="73"  x2="107" y2="73"/>
    <line x1="93" y1="96"  x2="107" y2="96"/>
    <line x1="93" y1="119" x2="107" y2="119"/>
    <line x1="93" y1="142" x2="107" y2="142"/>
    <line x1="93" y1="165" x2="107" y2="165"/>
  </g>
</g>

<!-- ── White Diamond: barrage balloon / whale blimp ── -->
<g transform="translate(520,280)" fill="black">
  <!-- upper tail fin -->
  <path d="M 32,74 L 8,42 L 52,62 Z"/>
  <!-- lower tail fin -->
  <path d="M 32,118 L 8,150 L 52,130 Z"/>
  <!-- main balloon body -->
  <path d="M 28,96 C 20,82 32,62 62,56 C 92,50 138,50 164,68
    C 178,76 186,88 186,100 C 186,112 178,124 164,132
    C 138,148 92,148 62,142 C 32,136 20,116 28,104 Z"/>
  <!-- gondola -->
  <rect x="108" y="152" width="32" height="13" rx="2"/>
  <line x1="116" y1="148" x2="116" y2="152" stroke-width="2"/>
  <line x1="132" y1="148" x2="132" y2="152" stroke-width="2"/>
</g>

</svg>
